<?xml version="1.0" encoding="utf-8"?>
<!-- Generator: Adobe Illustrator 26.1.0, SVG Export Plug-In . SVG Version: 6.00 Build 0)  -->
<svg version="1.1" id="Ebene_1" xmlns="http://www.w3.org/2000/svg" xmlns:xlink="http://www.w3.org/1999/xlink" x="0px" y="0px"
	 viewBox="0 0 290.9 291" style="enable-background:new 0 0 290.9 291;" xml:space="preserve">
<style type="text/css">
	.st0{fill-rule:evenodd;clip-rule:evenodd;fill:#FFED00;}
	.st1{fill-rule:evenodd;clip-rule:evenodd;fill:#008136;}
	.st2{fill:#008136;}
</style>
<path class="st0" d="M145.5,291c80.2,0,145.5-65.4,145.5-145.5C291,65.4,225.6,0,145.5,0C65.4,0,0,65.4,0,145.5
	C0,225.6,65.4,291,145.5,291"/>
<path class="st1" d="M143.8,250.1c0,0,1-5.8,1.4-8.4c2.4-15.1,3.9-30.5,7.7-45.3c4.6-16.9,9.4-35,17.4-50.7c1.5-2.4,3.8-7.1,7.3-6.9
	c9.1-0.7,18.3-3.7,25.8-9.2c5.6-4.1,10-8.7,13.1-15c2.4-6.3,3.4-12.5,3.4-19.3c0.1-6.1,1.1-11.6,3.4-17.2c0.5-1.6,1.1-3.1,1-4.7
	c-3.5-0.4-7.9,2.6-11.1,3.8c-7.6,2.5-15.9,3.6-23.7,5.1c-6.3,1.1-12.1,2.9-17.4,6.7c-8.6,6.1-12.9,13.6-16.1,23.6
	c-1.4,5.6-2.5,12.1-2.1,17.9l0.3,0.7c1.4-0.5,4-4.9,4.8-6.2c5.1-8,10.2-15.2,17.9-21c1.3-0.8,8.6-4.8,9.5-2.8
	c-0.1,2.6-4.3,6.2-6,8.3c-15.1,17.8-24,41.7-31.9,63.4c-4.4,12-7.1,24.7-12.2,36.3c-0.2,0.4-0.6,1.3-1.1,1.5
	c-1.4-1.4-2.2-4.8-2.8-6.6c-2.3-8.2-4.3-16.8-6.7-25c-5.8-21.8-12.6-47.2-25.9-65.8C89.7,99.7,76,84.4,59.7,78.6h-0.8
	c-0.6,1.3,0.8,2.3,1.6,3.2c19.7,20.1,35.5,47.6,44,74.2c8.8,27.9,17.2,57.7,22.1,86.6c0.4,2.3,0.9,5.2,1.5,7.5c0,0,5.3,0.3,7.8,0.3
	C138.4,250.4,143.8,250,143.8,250.1"/>
<g>
	<path class="st2" d="M88.2,34.1L78,28.5l5.1-2.5l5.3,3l0.8-6l5.1-2.5L92.5,32l3.9,7.9l-4.3,2.1L88.2,34.1z"/>
	<path class="st2" d="M108.5,20l-5.4,1.8l1,2.9l5.1-1.7l1.3,3.8l-5.1,1.7l1,3l5.4-1.8l1.3,3.8l-9.9,3.4l-5.9-17.4l9.9-3.4L108.5,20z
		"/>
	<path class="st2" d="M122.5,17.4c-0.6-0.3-1.2-0.5-1.7-0.6c-0.6-0.1-1.1-0.1-1.5,0c-0.6,0.1-1.1,0.4-1.4,0.7
		c-0.3,0.4-0.4,0.8-0.3,1.2c0.1,0.3,0.2,0.6,0.5,0.7s0.5,0.3,0.9,0.4c0.3,0.1,0.7,0.1,1.1,0.2c0.4,0,0.8,0.1,1.2,0.1
		c1.6,0.2,2.9,0.6,3.8,1.3s1.5,1.7,1.8,3.1c0.2,0.9,0.2,1.8,0.1,2.6c-0.2,0.8-0.5,1.6-1,2.2c-0.5,0.7-1.1,1.2-1.9,1.7
		s-1.8,0.8-2.9,1.1c-2.3,0.5-4.5,0.3-6.8-0.7l1.2-4.2c0.8,0.5,1.6,0.8,2.4,0.9s1.5,0.2,2.1,0c0.8-0.2,1.3-0.5,1.6-0.9
		c0.3-0.4,0.4-0.9,0.3-1.3c-0.1-0.3-0.2-0.5-0.3-0.7s-0.3-0.3-0.6-0.4s-0.6-0.2-1-0.3c-0.4-0.1-0.9-0.1-1.4-0.2
		c-0.6-0.1-1.3-0.1-1.9-0.3c-0.6-0.1-1.2-0.3-1.7-0.6s-1-0.7-1.4-1.2c-0.4-0.5-0.7-1.2-0.9-2.1c-0.2-0.9-0.2-1.7-0.1-2.5
		c0.1-0.8,0.4-1.5,0.8-2.1c0.4-0.6,1-1.2,1.7-1.6c0.7-0.4,1.5-0.8,2.5-1c0.9-0.2,1.8-0.3,2.9-0.2c1,0,2,0.2,3,0.5L122.5,17.4z"/>
	<path class="st2" d="M140.3,10.9l4.6,11.1l4.3-11.3l5.2-0.1l-7.5,18.5l-3.8,0.1l-8-18.3L140.3,10.9z"/>
	<path class="st2" d="M167.9,16.6l-5.6-0.7l-0.4,3l5.3,0.7l-0.5,4l-5.3-0.7l-0.4,3.1l5.6,0.7l-0.5,4l-10.4-1.4l2.4-18.2l10.4,1.4
		L167.9,16.6z"/>
	<path class="st2" d="M187.6,26.1l9,3.1c-0.3,0.9-0.7,1.7-1,2.5c-0.3,0.7-0.7,1.4-1.2,1.9c-0.6,0.8-1.4,1.4-2.2,1.9
		c-0.8,0.5-1.7,0.9-2.6,1.1c-0.9,0.2-1.9,0.3-2.8,0.2c-1-0.1-2-0.3-2.9-0.6c-1.4-0.5-2.5-1.1-3.5-2c-1-0.8-1.7-1.8-2.2-2.9
		c-0.5-1.1-0.8-2.3-0.8-3.6c0-1.3,0.2-2.6,0.6-4c0.5-1.4,1.1-2.5,2-3.5s1.8-1.7,2.9-2.2c1.1-0.5,2.3-0.8,3.6-0.8
		c1.3,0,2.6,0.2,4,0.7c1.8,0.6,3.3,1.6,4.4,2.9s1.7,2.9,2,4.8l-4.9,0.3c-0.1-1.1-0.3-2-0.8-2.6c-0.5-0.6-1.1-1.1-2-1.4
		c-0.7-0.2-1.3-0.3-2-0.3c-0.6,0.1-1.2,0.3-1.8,0.6s-1.1,0.8-1.5,1.4c-0.5,0.6-0.8,1.3-1.1,2.1c-0.3,0.7-0.4,1.5-0.4,2.1
		c0,0.7,0.1,1.3,0.3,1.9c0.2,0.6,0.6,1.1,1,1.6c0.5,0.5,1.1,0.8,1.8,1.1c0.4,0.2,0.9,0.3,1.3,0.3c0.5,0,0.9,0,1.3-0.1
		c0.4-0.1,0.8-0.3,1.1-0.6s0.6-0.7,0.9-1.1l-3.7-1.3L187.6,26.1z"/>
	<path class="st2" d="M205.6,42.2l-6-3.3l-2.5,2.3l-4.5-2.4l15-12.8l4.6,2.5l-2.7,19.5l-4.5-2.4L205.6,42.2z M206.3,38.4l1-6.4
		l-4.8,4.3L206.3,38.4z"/>
	<path class="st2" d="M210.3,48.5L221.7,34l3.8,3l0,14.3l7-8.8l3.7,2.9l-11.4,14.4l-3.7-2.9l0-14.3l-7,8.8L210.3,48.5z"/>
	<path class="st2" d="M246.8,64.7c0.3,0.4,0.5,0.9,0.7,1.3c0.1,0.5,0.1,1,0.1,1.5c-0.1,0.5-0.2,1-0.5,1.4s-0.5,0.8-0.9,1.1
		c-0.4,0.3-0.9,0.6-1.4,0.7c-0.5,0.1-1,0.2-1.5,0.1c-0.5,0-1-0.2-1.4-0.4c-0.4-0.2-0.8-0.6-1.2-1c-0.3-0.4-0.6-0.9-0.7-1.3
		c-0.1-0.5-0.2-1-0.1-1.4c0.1-0.5,0.2-0.9,0.4-1.4c0.2-0.4,0.6-0.8,1-1.2c0.4-0.3,0.9-0.6,1.4-0.7c0.5-0.1,1-0.2,1.5-0.1
		c0.5,0,1,0.2,1.4,0.4C246,64,246.4,64.3,246.8,64.7z"/>
	<path class="st2" d="M256.4,87.3l5.5-10.3l2.6,5.1l-3,5.3l6,0.8l2.6,5.1l-11.6-1.7l-7.9,4l-2.1-4.3L256.4,87.3z"/>
	<path class="st2" d="M270.7,107.4l-1.9-5.4l-2.9,1l1.8,5.1l-3.8,1.3l-1.8-5.1l-3,1.1l1.9,5.4l-3.8,1.3l-3.5-9.9l17.4-6.1l3.5,9.9
		L270.7,107.4z"/>
	<path class="st2" d="M273.4,121.4c0.3-0.6,0.5-1.2,0.6-1.7c0.1-0.6,0.1-1.1,0-1.5c-0.1-0.6-0.4-1.1-0.8-1.4
		c-0.4-0.3-0.8-0.4-1.2-0.3c-0.3,0.1-0.6,0.2-0.7,0.5c-0.2,0.2-0.3,0.5-0.4,0.9c-0.1,0.3-0.1,0.7-0.2,1.1c0,0.4-0.1,0.8-0.1,1.2
		c-0.2,1.6-0.6,2.9-1.3,3.8c-0.7,0.9-1.7,1.5-3.1,1.8c-0.9,0.2-1.8,0.2-2.6,0.1c-0.8-0.1-1.6-0.5-2.2-0.9c-0.7-0.5-1.2-1.1-1.7-1.9
		c-0.5-0.8-0.8-1.7-1.1-2.8c-0.5-2.3-0.3-4.5,0.6-6.8l4.2,1.2c-0.5,0.8-0.8,1.6-0.9,2.4c-0.2,0.7-0.2,1.5,0,2.1
		c0.2,0.8,0.5,1.3,0.9,1.6c0.4,0.3,0.9,0.4,1.3,0.3c0.3-0.1,0.5-0.2,0.7-0.3s0.3-0.3,0.4-0.6c0.1-0.3,0.2-0.6,0.3-1
		c0.1-0.4,0.1-0.9,0.2-1.4c0.1-0.6,0.1-1.3,0.2-1.9c0.1-0.6,0.3-1.2,0.6-1.8c0.3-0.5,0.7-1,1.2-1.4c0.5-0.4,1.2-0.7,2.1-0.9
		c0.9-0.2,1.7-0.2,2.5-0.1c0.8,0.1,1.5,0.4,2.1,0.8c0.6,0.4,1.2,1,1.6,1.7c0.5,0.7,0.8,1.5,1,2.5c0.2,0.9,0.3,1.8,0.2,2.9
		c0,1-0.2,2-0.5,3L273.4,121.4z"/>
	<path class="st2" d="M280.2,139.4l-11.1,4.6l11.3,4.3l0.1,5.2l-18.5-7.5l-0.1-3.8l18.3-8L280.2,139.4z"/>
	<path class="st2" d="M274.6,166.8l0.7-5.6l-3.1-0.4l-0.6,5.3l-4-0.5l0.6-5.3l-3.1-0.4l-0.7,5.6l-4-0.5l1.3-10.4l18.3,2.2l-1.3,10.4
		L274.6,166.8z"/>
	<path class="st2" d="M265.3,186.6l-3.1,9c-0.9-0.3-1.7-0.6-2.5-1s-1.4-0.7-1.9-1.2c-0.8-0.6-1.5-1.3-2-2.1
		c-0.5-0.8-0.9-1.6-1.1-2.6s-0.3-1.8-0.2-2.8s0.3-2,0.6-2.9c0.5-1.4,1.1-2.5,1.9-3.5c0.8-1,1.8-1.7,2.9-2.2s2.3-0.8,3.5-0.9
		c1.3-0.1,2.6,0.1,4,0.6c1.4,0.5,2.5,1.1,3.5,1.9c1,0.8,1.7,1.8,2.3,2.9c0.5,1.1,0.8,2.3,0.9,3.6c0.1,1.3-0.2,2.6-0.6,4
		c-0.6,1.8-1.6,3.3-2.8,4.4c-1.3,1.1-2.8,1.8-4.8,2l-0.3-4.9c1.1-0.1,2-0.4,2.6-0.9c0.6-0.5,1.1-1.2,1.4-2c0.2-0.7,0.3-1.3,0.3-2
		c-0.1-0.6-0.3-1.2-0.6-1.8c-0.3-0.6-0.8-1.1-1.4-1.5c-0.6-0.5-1.3-0.8-2.1-1.1c-0.7-0.3-1.5-0.4-2.2-0.4c-0.7,0-1.3,0.1-1.9,0.3
		c-0.6,0.2-1.1,0.6-1.6,1.1c-0.4,0.5-0.8,1.1-1.1,1.9c-0.2,0.4-0.2,0.9-0.3,1.3c0,0.5,0,0.9,0.1,1.3c0.1,0.4,0.3,0.8,0.6,1.1
		s0.7,0.6,1.1,0.9l1.3-3.7L265.3,186.6z"/>
	<path class="st2" d="M249.4,204.8l3.2-6l-2.3-2.5l2.4-4.5l12.9,14.9l-2.5,4.6l-19.5-2.5l2.4-4.5L249.4,204.8z M253.2,205.4l6.4,1
		l-4.4-4.8L253.2,205.4z"/>
	<path class="st2" d="M243.1,209.5l14.5,11.3l-2.9,3.8l-14.3,0.1l8.9,6.9l-2.9,3.8L231.8,224l2.9-3.8l14.3-0.1l-8.9-6.9L243.1,209.5
		z"/>
	<path class="st2" d="M227.2,246.1c-0.4,0.3-0.8,0.6-1.3,0.7s-1,0.2-1.5,0.1c-0.5-0.1-1-0.2-1.4-0.4c-0.4-0.2-0.8-0.5-1.1-0.9
		c-0.3-0.4-0.6-0.9-0.7-1.3c-0.1-0.5-0.2-1-0.1-1.5c0-0.5,0.2-1,0.4-1.4s0.6-0.8,1-1.2c0.4-0.3,0.8-0.6,1.3-0.7
		c0.5-0.1,1-0.2,1.4-0.1c0.5,0,0.9,0.2,1.4,0.4s0.8,0.6,1.2,1c0.3,0.4,0.6,0.9,0.7,1.3c0.1,0.5,0.2,1,0.1,1.5c0,0.5-0.2,1-0.4,1.4
		C227.9,245.3,227.6,245.7,227.2,246.1z"/>
	<path class="st2" d="M204.6,255.8l10.3,5.5l-5.1,2.6l-5.3-2.9l-0.7,6l-5.1,2.6l1.6-11.6l-4-7.9l4.3-2.2L204.6,255.8z"/>
	<path class="st2" d="M184.6,270.3l5.4-1.9l-1-2.9l-5.1,1.8l-1.4-3.8l5.1-1.8l-1.1-3l-5.4,1.9l-1.4-3.8l9.9-3.5l6.2,17.3l-9.9,3.5
		L184.6,270.3z"/>
	<path class="st2" d="M170.6,273.1c0.6,0.3,1.2,0.5,1.7,0.6c0.6,0.1,1.1,0.1,1.5,0c0.6-0.1,1.1-0.4,1.4-0.8c0.3-0.4,0.4-0.8,0.3-1.2
		c-0.1-0.3-0.2-0.6-0.5-0.7c-0.2-0.2-0.5-0.3-0.9-0.4s-0.7-0.1-1.1-0.2c-0.4,0-0.8-0.1-1.2-0.1c-1.6-0.2-2.9-0.6-3.8-1.3
		c-0.9-0.7-1.5-1.7-1.8-3.1c-0.2-0.9-0.2-1.8-0.1-2.6s0.4-1.6,0.9-2.2c0.5-0.7,1.1-1.2,1.9-1.7s1.7-0.9,2.8-1.1
		c2.3-0.5,4.5-0.3,6.8,0.6l-1.1,4.2c-0.8-0.5-1.6-0.8-2.4-0.9c-0.8-0.1-1.5-0.1-2.1,0c-0.8,0.2-1.3,0.5-1.6,0.9
		c-0.3,0.4-0.4,0.9-0.3,1.3c0.1,0.3,0.2,0.5,0.3,0.7s0.3,0.3,0.6,0.4c0.3,0.1,0.6,0.2,1,0.3c0.4,0.1,0.9,0.1,1.4,0.2
		c0.6,0.1,1.3,0.1,1.9,0.2c0.6,0.1,1.2,0.3,1.8,0.6s1,0.7,1.4,1.2c0.4,0.5,0.7,1.2,0.9,2.1c0.2,0.9,0.2,1.7,0.1,2.5
		s-0.4,1.5-0.8,2.1c-0.4,0.6-1,1.2-1.7,1.6c-0.7,0.5-1.5,0.8-2.5,1c-0.9,0.2-1.8,0.3-2.9,0.3c-1,0-2-0.2-3-0.4L170.6,273.1z"/>
	<path class="st2" d="M152.6,280.1l-4.7-11.1l-4.3,11.3l-5.2,0.1l7.4-18.5l3.8-0.1l8.1,18.2L152.6,280.1z"/>
	<path class="st2" d="M125.3,274.7l5.6,0.6l0.3-3.1l-5.3-0.6l0.5-4l5.3,0.6l0.4-3.2l-5.6-0.6l0.5-4l10.4,1.2l-2.1,18.3l-10.4-1.2
		L125.3,274.7z"/>
	<path class="st2" d="M105.4,265.6l-9-3c0.3-0.9,0.6-1.8,1-2.5c0.3-0.7,0.7-1.4,1.2-2c0.6-0.8,1.3-1.5,2.1-2
		c0.8-0.5,1.6-0.9,2.5-1.1c0.9-0.2,1.8-0.3,2.8-0.3c1,0.1,2,0.2,2.9,0.6c1.4,0.5,2.5,1.1,3.5,1.9c1,0.8,1.7,1.8,2.3,2.8
		s0.8,2.3,0.9,3.5c0.1,1.3-0.1,2.6-0.6,4c-0.5,1.4-1.1,2.5-1.9,3.5s-1.8,1.7-2.8,2.3c-1.1,0.5-2.3,0.8-3.6,0.9
		c-1.3,0.1-2.6-0.1-4-0.6c-1.8-0.6-3.3-1.5-4.4-2.8c-1.1-1.2-1.8-2.8-2-4.7l4.9-0.3c0.1,1.1,0.4,2,0.9,2.6c0.5,0.6,1.2,1.1,2,1.4
		c0.7,0.2,1.3,0.3,2,0.2c0.6-0.1,1.2-0.3,1.8-0.6s1-0.8,1.5-1.4c0.4-0.6,0.8-1.3,1.1-2.1c0.2-0.7,0.4-1.5,0.4-2.2
		c0-0.7-0.1-1.3-0.3-1.9c-0.2-0.6-0.6-1.1-1.1-1.6c-0.5-0.4-1.1-0.8-1.9-1c-0.4-0.1-0.9-0.2-1.3-0.3c-0.4,0-0.9,0-1.3,0.1
		c-0.4,0.1-0.8,0.3-1.1,0.6s-0.6,0.7-0.9,1.2l3.7,1.2L105.4,265.6z"/>
	<path class="st2" d="M87.1,249.8l6.1,3.2l2.5-2.3l4.5,2.4l-14.7,13l-4.6-2.4l2.3-19.5l4.5,2.4L87.1,249.8z M86.5,253.6l-0.9,6.4
		l4.7-4.4L86.5,253.6z"/>
	<path class="st2" d="M82.3,243.5l-11.2,14.6l-3.8-2.9L67.1,241l-6.8,8.9l-3.8-2.9l11.2-14.6l3.8,2.9l0.2,14.3l6.8-8.9L82.3,243.5z"
		/>
	<path class="st2" d="M45.6,227.9c-0.3-0.4-0.6-0.8-0.7-1.3c-0.1-0.5-0.2-1-0.1-1.5c0.1-0.5,0.2-1,0.4-1.4c0.2-0.4,0.5-0.8,0.9-1.1
		c0.4-0.3,0.9-0.6,1.3-0.7c0.5-0.1,1-0.2,1.5-0.2s1,0.2,1.4,0.4s0.8,0.5,1.2,1c0.3,0.4,0.6,0.8,0.7,1.3c0.1,0.5,0.2,1,0.1,1.4
		c0,0.5-0.2,0.9-0.4,1.4c-0.2,0.5-0.5,0.8-1,1.2c-0.4,0.3-0.9,0.6-1.3,0.7c-0.5,0.1-1,0.2-1.5,0.2c-0.5,0-1-0.2-1.4-0.4
		C46.3,228.7,45.9,228.3,45.6,227.9z"/>
	<path class="st2" d="M35.6,205.5l-5.4,10.4l-2.6-5.1l2.9-5.4l-6-0.7l-2.6-5.1l11.6,1.5l7.8-4.1l2.2,4.2L35.6,205.5z"/>
	<path class="st2" d="M21,185.6l2,5.3l2.9-1.1l-1.9-5l3.8-1.4l1.9,5l3-1.1l-2-5.3l3.8-1.4l3.6,9.8l-17.3,6.4l-3.6-9.8L21,185.6z"/>
	<path class="st2" d="M18,171.6c-0.3,0.6-0.5,1.2-0.6,1.7c-0.1,0.6-0.1,1.1,0.1,1.5c0.1,0.6,0.4,1.1,0.8,1.4
		c0.4,0.3,0.8,0.4,1.3,0.3c0.3-0.1,0.6-0.2,0.7-0.5c0.2-0.2,0.3-0.5,0.4-0.9c0.1-0.3,0.1-0.7,0.1-1.1c0-0.4,0-0.8,0.1-1.2
		c0.1-1.6,0.6-2.9,1.2-3.8c0.7-0.9,1.7-1.5,3.1-1.8c0.9-0.2,1.8-0.3,2.6-0.1c0.8,0.1,1.6,0.4,2.2,0.9c0.7,0.5,1.3,1.1,1.8,1.9
		c0.5,0.8,0.9,1.7,1.1,2.8c0.5,2.3,0.4,4.5-0.5,6.8l-4.2-1.1c0.5-0.8,0.7-1.6,0.9-2.4s0.1-1.5,0-2.1c-0.2-0.8-0.5-1.3-0.9-1.6
		c-0.4-0.3-0.9-0.4-1.3-0.3c-0.3,0.1-0.5,0.2-0.7,0.3c-0.2,0.1-0.3,0.3-0.4,0.6c-0.1,0.3-0.2,0.6-0.3,1c-0.1,0.4-0.1,0.9-0.2,1.4
		c0,0.6-0.1,1.3-0.2,1.9c-0.1,0.6-0.3,1.2-0.5,1.8c-0.3,0.5-0.7,1-1.2,1.4s-1.2,0.7-2.1,0.9c-0.9,0.2-1.7,0.3-2.5,0.1
		c-0.8-0.1-1.5-0.4-2.1-0.8c-0.6-0.4-1.2-1-1.7-1.7c-0.5-0.7-0.8-1.5-1-2.5c-0.2-0.9-0.3-1.8-0.3-2.9s0.2-2,0.4-3L18,171.6z"/>
	<path class="st2" d="M10.9,153.7l11.1-4.7l-11.3-4.2l-0.1-5.2l18.6,7.2l0.1,3.8l-18.2,8.2L10.9,153.7z"/>
	<path class="st2" d="M16.1,126.3l-0.6,5.7l3.1,0.3l0.6-5.3l4,0.4l-0.6,5.3l3.2,0.3l0.6-5.7l4,0.4l-1.1,10.4L11,136.3l1.1-10.4
		L16.1,126.3z"/>
	<path class="st2" d="M25,106.3l2.9-9c0.9,0.3,1.8,0.6,2.5,0.9c0.7,0.3,1.4,0.7,2,1.1c0.8,0.6,1.5,1.3,2,2.1
		c0.5,0.8,0.9,1.6,1.1,2.5c0.2,0.9,0.3,1.8,0.3,2.8s-0.2,2-0.5,3c-0.4,1.4-1.1,2.5-1.9,3.5c-0.8,1-1.8,1.7-2.8,2.3s-2.3,0.9-3.5,0.9
		c-1.3,0.1-2.6-0.1-4-0.5c-1.4-0.4-2.5-1.1-3.5-1.9c-1-0.8-1.8-1.8-2.3-2.8c-0.5-1.1-0.9-2.3-0.9-3.5c-0.1-1.3,0.1-2.6,0.6-4
		c0.6-1.8,1.5-3.3,2.7-4.4c1.2-1.1,2.8-1.8,4.7-2.1l0.4,4.9c-1.1,0.1-1.9,0.4-2.6,0.9c-0.6,0.5-1.1,1.2-1.3,2
		c-0.2,0.7-0.3,1.3-0.2,2c0.1,0.6,0.3,1.2,0.6,1.8c0.3,0.5,0.8,1,1.4,1.5c0.6,0.4,1.3,0.8,2.1,1.1c0.7,0.2,1.5,0.4,2.2,0.4
		c0.7,0,1.3-0.1,1.9-0.3c0.6-0.2,1.1-0.6,1.5-1.1c0.4-0.5,0.8-1.1,1-1.9c0.1-0.4,0.2-0.9,0.3-1.3c0-0.5,0-0.9-0.1-1.3
		s-0.3-0.8-0.6-1.1c-0.3-0.3-0.7-0.6-1.2-0.9l-1.2,3.7L25,106.3z"/>
	<path class="st2" d="M40.7,87.9L37.5,94l2.3,2.4l-2.3,4.5L24.4,86.3l2.4-4.6l19.6,2.2L44,88.4L40.7,87.9z M36.9,87.4l-6.4-0.9
		l4.5,4.7L36.9,87.4z"/>
	<path class="st2" d="M46.9,83.1L32.2,72l2.9-3.8l14.3-0.3l-9-6.8l2.9-3.8l14.7,11L55,72.2l-14.3,0.3l9,6.8L46.9,83.1z"/>
	<path class="st2" d="M56,51.8c0.4-0.4,0.8-0.6,1.3-0.8c0.5-0.2,1-0.2,1.5-0.2s1,0.1,1.4,0.3c0.5,0.2,0.9,0.5,1.2,0.8
		c0.4,0.4,0.6,0.8,0.8,1.3c0.2,0.5,0.3,0.9,0.3,1.4c0,0.5-0.1,1-0.3,1.4c-0.2,0.5-0.5,0.9-0.9,1.3c-0.4,0.4-0.8,0.6-1.3,0.8
		c-0.5,0.2-0.9,0.2-1.4,0.2c-0.5,0-1-0.1-1.4-0.3s-0.9-0.5-1.3-0.9c-0.4-0.4-0.6-0.8-0.8-1.3c-0.2-0.5-0.3-0.9-0.3-1.4
		c0-0.5,0.1-1,0.3-1.4C55.3,52.6,55.6,52.2,56,51.8z"/>
</g>
</svg>
